<svg width="177" height="38" viewBox="0 0 177 38" fill="none" xmlns="http://www.w3.org/2000/svg">
<path fill-rule="evenodd" clip-rule="evenodd" d="M22.6795 16.3292C22.6795 15.8711 23.0509 15.4997 23.509 15.4997H29.0389C29.497 15.4997 29.8684 15.8711 29.8684 16.3292C29.8684 16.7873 29.497 17.1587 29.0389 17.1587H23.509C23.0509 17.1587 22.6795 16.7873 22.6795 16.3292Z" fill="white"/>
<path fill-rule="evenodd" clip-rule="evenodd" d="M8.85474 16.3292C8.85474 15.8711 9.22611 15.4997 9.68422 15.4997H15.2141C15.6723 15.4997 16.0436 15.8711 16.0436 16.3292C16.0436 16.7873 15.6723 17.1587 15.2141 17.1587H9.68422C9.22611 17.1587 8.85474 16.7873 8.85474 16.3292Z" fill="#1B0D41"/>
<path fill-rule="evenodd" clip-rule="evenodd" d="M12.4492 12.7349C12.9074 12.7349 13.2787 13.1063 13.2787 13.5644V19.0943C13.2787 19.5524 12.9074 19.9238 12.4492 19.9238C11.9911 19.9238 11.6198 19.5524 11.6198 19.0943V13.5644C11.6198 13.1063 11.9911 12.7349 12.4492 12.7349Z" fill="#1B0D41"/>
<path d="M26.9652 7.29138L11.7579 7.34322C9.64572 7.34724 7.60219 8.09374 5.98476 9.45213C4.36732 10.8105 3.27896 12.6943 2.91004 14.774L0.075957 29.3074C-0.106015 30.3223 0.0409698 31.3687 0.49548 32.2942C0.94999 33.2197 1.68826 33.9759 2.60264 34.4523C3.51702 34.9288 4.55971 35.1008 5.57866 34.9431C6.59761 34.7854 7.53956 34.3063 8.26715 33.5758L15.7325 25.3154L26.9652 25.2636C29.3484 25.2636 31.6341 24.3169 33.3193 22.6316C35.0045 20.9464 35.9513 18.6608 35.9513 16.2775C35.9513 13.8942 35.0045 11.6086 33.3193 9.92335C31.6341 8.23813 29.3484 7.29138 26.9652 7.29138Z" fill="#A01FF0"/>
<path d="M35.8131 14.7222L38.6472 29.3074C38.8291 30.3223 38.6822 31.3688 38.2277 32.2943C37.7731 33.2198 37.0349 33.9759 36.1205 34.4524C35.2061 34.9289 34.1634 35.1008 33.1445 34.9431C32.1255 34.7854 31.1836 34.3064 30.456 33.5758L22.9906 25.2809" fill="#A01FF0"/>
<path fill-rule="evenodd" clip-rule="evenodd" d="M22.3685 16.1566C22.3685 15.6985 22.7398 15.3271 23.198 15.3271H28.3823C28.8404 15.3271 29.2117 15.6985 29.2117 16.1566C29.2117 16.6147 28.8404 16.9861 28.3823 16.9861H23.198C22.7398 16.9861 22.3685 16.6147 22.3685 16.1566Z" fill="white"/>
<path fill-rule="evenodd" clip-rule="evenodd" d="M9.40771 16.1566C9.40771 15.6985 9.77909 15.3271 10.2372 15.3271H15.4215C15.8796 15.3271 16.251 15.6985 16.251 16.1566C16.251 16.6147 15.8796 16.9861 15.4215 16.9861H10.2372C9.77909 16.9861 9.40771 16.6147 9.40771 16.1566Z" fill="white"/>
<path fill-rule="evenodd" clip-rule="evenodd" d="M12.8293 12.7349C13.2874 12.7349 13.6588 13.1063 13.6588 13.5644V18.7487C13.6588 19.2068 13.2874 19.5782 12.8293 19.5782C12.3712 19.5782 11.9998 19.2068 11.9998 18.7487V13.5644C11.9998 13.1063 12.3712 12.7349 12.8293 12.7349Z" fill="white"/>
<path d="M65.4803 9.03642C63.0924 9.03642 61.1822 9.86872 59.7495 11.4937C58.7148 9.86872 57.0433 9.03642 54.7749 9.03642C52.4666 9.03642 50.6758 9.82909 49.3625 11.4541V9.59129H42V29.408H49.3625V19.024C49.3625 17.082 50.1584 16.0912 51.7105 16.0912C53.0636 16.0912 53.7401 16.8442 53.7401 18.3503V29.408H61.1026V19.024C61.1026 17.082 61.8985 16.0912 63.4506 16.0912C64.8037 16.0912 65.4803 16.8442 65.4803 18.3503V29.408H72.8427V17.3594C72.8427 12.0089 70.0967 9.03642 65.4803 9.03642Z" fill="white"/>
<path d="M95.5134 21.9966C95.7123 21.1642 95.8317 20.2923 95.8317 19.4204C95.8317 16.4479 94.8368 13.951 92.8867 12.0089C90.9367 10.0273 88.4693 9.03642 85.4447 9.03642C82.3803 9.03642 79.8731 10.0273 77.8435 12.0486C75.8536 14.0699 74.8587 16.5668 74.8587 19.5789C74.8587 22.5514 75.8934 25.0483 77.9231 27.03C79.9925 28.972 82.7385 29.9629 86.1213 29.9629C89.7428 29.9629 92.5684 28.8928 94.5582 26.7526L89.7428 22.71C88.7081 23.5423 87.5937 23.9782 86.36 23.9782C84.2906 23.9782 82.9375 23.3045 82.3007 21.9966H95.5134ZM82.1813 17.2802C82.7783 15.6948 83.9324 14.9022 85.6437 14.9022C87.355 14.9022 88.4295 15.6948 88.8672 17.2802H82.1813Z" fill="white"/>
<path d="M102.107 8.08522C103.182 8.08522 104.137 7.68889 104.933 6.89622C105.769 6.06391 106.167 5.11271 106.167 4.04261C106.167 2.97251 105.769 2.0213 104.933 1.22864C104.137 0.396334 103.182 0 102.107 0C100.993 0 100.038 0.396334 99.202 1.22864C98.4061 2.0213 98.0081 2.97251 98.0081 4.04261C98.0081 5.11271 98.4061 6.06391 99.202 6.89622C100.038 7.68889 100.993 8.08522 102.107 8.08522ZM98.4061 29.408C98.4061 30.8744 97.5306 31.5482 95.8193 31.3897V37.9688C102.664 38.3255 105.769 35.6305 105.769 29.408V9.59129H98.4061V29.408Z" fill="white"/>
<path d="M118.715 29.9629C121.7 29.9629 124.247 28.972 126.317 26.9507C128.386 24.9294 129.421 22.4722 129.421 19.4996C129.421 16.5271 128.386 14.0699 126.317 12.0486C124.247 10.0273 121.7 9.03642 118.715 9.03642C115.731 9.03642 113.184 10.0273 111.114 12.0486C109.045 14.0699 108.01 16.5271 108.01 19.4996C108.01 22.4722 109.045 24.9294 111.114 26.9507C113.223 28.972 115.731 29.9629 118.715 29.9629ZM116.288 22.0362C115.691 21.3624 115.372 20.5301 115.372 19.4996C115.372 18.4692 115.691 17.6369 116.288 17.0027C116.924 16.329 117.72 16.0119 118.715 16.0119C119.71 16.0119 120.506 16.329 121.103 17.0027C121.74 17.6369 122.058 18.4692 122.058 19.4996C122.058 20.5301 121.74 21.3624 121.103 22.0362C120.506 22.6703 119.71 22.9874 118.715 22.9874C117.72 22.9874 116.924 22.6703 116.288 22.0362Z" fill="white"/>
<path d="M145.587 11.3748C144.314 9.82909 142.523 9.03642 140.254 9.03642C137.588 9.03642 135.399 9.98763 133.688 11.9297C131.976 13.8717 131.141 16.2497 131.141 19.1033C131.141 21.9569 131.976 24.3349 133.688 26.277C135.399 28.219 137.588 29.1702 140.254 29.1702C142.523 29.1702 144.314 28.3775 145.587 26.8318V28.8135C145.587 30.7159 143.995 31.6275 142.125 31.6275C140.493 31.6275 139.22 30.9933 138.264 29.6854L132.295 33.1335C134.046 36.1853 137.866 37.9688 142.523 37.9688C147.657 37.9688 152.95 35.4323 152.95 28.8135V9.59129H145.587V11.3748ZM139.458 21.6399C138.185 20.2527 138.185 17.9539 139.458 16.5668C140.135 15.893 140.971 15.5363 142.045 15.5363C143.12 15.5363 143.955 15.893 144.592 16.5668C145.905 17.9539 145.905 20.2527 144.592 21.6399C143.955 22.3136 143.12 22.6703 142.045 22.6703C140.971 22.6703 140.135 22.3136 139.458 21.6399Z" fill="white"/>
<path d="M169.638 11.3748C168.364 9.82909 166.573 9.03642 164.305 9.03642C161.638 9.03642 159.449 10.0273 157.738 12.0089C156.027 13.9906 155.191 16.4875 155.191 19.4996C155.191 22.5118 156.027 25.0087 157.738 26.9904C159.449 28.972 161.638 29.9629 164.305 29.9629C166.573 29.9629 168.364 29.1702 169.638 27.6245V29.408H177V9.59129H169.638V11.3748ZM163.509 22.1551C162.235 20.7283 162.235 18.271 163.509 16.8442C164.185 16.1308 165.021 15.7741 166.096 15.7741C167.17 15.7741 168.006 16.1308 168.643 16.8442C169.956 18.271 169.956 20.7283 168.643 22.1551C168.006 22.8685 167.17 23.2252 166.096 23.2252C165.021 23.2252 164.185 22.8685 163.509 22.1551Z" fill="white"/>
</svg>
