<svg width="16" height="16" viewBox="0 0 16 16" fill="none" xmlns="http://www.w3.org/2000/svg">
<g clip-path="url(#clip0_128_251)">
<path d="M5.99998 14.6666C6.36817 14.6666 6.66665 14.3682 6.66665 14C6.66665 13.6318 6.36817 13.3333 5.99998 13.3333C5.63179 13.3333 5.33331 13.6318 5.33331 14C5.33331 14.3682 5.63179 14.6666 5.99998 14.6666Z" stroke="white" stroke-width="2" stroke-linecap="round" stroke-linejoin="round"/>
<path d="M13.3334 14.6666C13.7015 14.6666 14 14.3682 14 14C14 13.6318 13.7015 13.3333 13.3334 13.3333C12.9652 13.3333 12.6667 13.6318 12.6667 14C12.6667 14.3682 12.9652 14.6666 13.3334 14.6666Z" stroke="white" stroke-width="2" stroke-linecap="round" stroke-linejoin="round"/>
<path d="M0.666656 0.666687H3.33332L5.11999 9.59335C5.18095 9.90028 5.34793 10.176 5.59169 10.3722C5.83545 10.5684 6.14046 10.6727 6.45332 10.6667H12.9333C13.2462 10.6727 13.5512 10.5684 13.795 10.3722C14.0387 10.176 14.2057 9.90028 14.2667 9.59335L15.3333 4.00002H3.99999" stroke="white" stroke-width="2" stroke-linecap="round" stroke-linejoin="round"/>
</g>
<defs>
<clipPath id="clip0_128_251">
<rect width="16" height="16" fill="white"/>
</clipPath>
</defs>
</svg>
