<svg width="254" height="158" viewBox="0 0 254 158" fill="none" xmlns="http://www.w3.org/2000/svg">
<path d="M126.857 118.168C166.152 119.34 202.159 147.586 233.224 153.839C273.85 164.34 234.215 14.7549 202.328 4.5068C187.221 -1.38296 152.526 16.986 126.857 17.9358C99.9199 17.9358 66.4922 -1.38296 51.3856 4.5068C19.4949 14.7549 -20.1401 164.34 20.4897 153.841C51.5542 147.586 88.8289 119.026 126.857 118.168Z" fill="#0D92F4"/>
<path d="M89.3712 59.5997H83.7456V53.974C83.7456 47.4127 78.3757 42.0428 71.8143 42.0428C65.253 42.0428 59.8831 47.4127 59.8831 53.974V59.5997H54.2574C47.6961 59.5997 42.3262 64.9696 42.3262 71.5309C42.3262 78.0923 47.6961 83.4622 54.2574 83.4622H59.8831V89.0878C59.8831 95.6492 65.253 101.019 71.8143 101.019C78.3757 101.019 83.7456 95.6492 83.7456 89.0878V83.465H89.3712C95.9326 83.465 101.302 78.0951 101.302 71.5337C101.302 64.9696 95.9354 59.5997 89.3712 59.5997Z" fill="white"/>
<path d="M184.037 60.0802C188.754 60.0802 192.577 56.2569 192.577 51.5406C192.577 46.8243 188.754 43.001 184.037 43.001C179.321 43.001 175.498 46.8243 175.498 51.5406C175.498 56.2569 179.321 60.0802 184.037 60.0802Z" fill="white"/>
<path d="M184.037 101.078C188.754 101.078 192.577 97.2548 192.577 92.5385C192.577 87.8222 188.754 83.9989 184.037 83.9989C179.321 83.9989 175.498 87.8222 175.498 92.5385C175.498 97.2548 179.321 101.078 184.037 101.078Z" fill="white"/>
<path d="M163.552 80.5932C168.269 80.5932 172.092 76.7699 172.092 72.0536C172.092 67.3373 168.269 63.514 163.552 63.514C158.836 63.514 155.013 67.3373 155.013 72.0536C155.013 76.7699 158.836 80.5932 163.552 80.5932Z" fill="white"/>
<path d="M204.522 80.5932C209.238 80.5932 213.062 76.7699 213.062 72.0536C213.062 67.3373 209.238 63.514 204.522 63.514C199.806 63.514 195.983 67.3373 195.983 72.0536C195.983 76.7699 199.806 80.5932 204.522 80.5932Z" fill="white"/>
</svg>
